# xmcd
#
# Track frame offsets:
#	150
#	20812
#	43230
#	61492
#	81737
#	101832
#	123137
#	139142
#	156267
#
# Disc length: 2364 seconds
#
# Revision: 16
# Processed by: cddbd v1.5.2PL0 Copyright (c) Steve Scherf et al.
# Submitted via: Jack! The Knife 20 Magnifico
#
DISCID=84093a09
DTITLE=Kiss - Dynasty
DYEAR=1979
DGENRE=Hard Rock
TTITLE0=I Was Made for Lovin' You
TTITLE1=2,000 Man
TTITLE2=Sure Know Something
TTITLE3=Dirty Livin'
TTITLE4=Charisma
TTITLE5=Magic Touch
TTITLE6=Hard Times
TTITLE7=X-Ray Eyes
TTITLE8=Save Your Love
EXTD=Vini Poncia
EXTT0=Stanley, Child, Poncia
EXTT1=Jagger, Richards
EXTT2=Stanley, Poncia
EXTT3=Criss, Penridge
EXTT4=Simmons, Marks
EXTT5=Paul Stanley
EXTT6=Ace Frehley
EXTT7=Gene Simmons
EXTT8=Ace Frehley
PLAYORDER=
